<svg id="icone" xmlns="http://www.w3.org/2000/svg" viewBox="0 0 85.56 167.25">
  <title>icone</title>
  <path d="M30.05,123.21h0a3,3,0,0,1,3,3v16.24a3,3,0,0,1-3,3h0a3,3,0,0,1-3-3V126.23A3,3,0,0,1,30.05,123.21Z" transform="translate(0.01)"/>
  <circle cx="17.11" cy="67.39" r="9.43"/>
  <circle cx="70.53" cy="67.39" r="9.43"/>
  <path d="M43.81,80.46h6.94a9,9,0,0,1,7.78,13.47l-3.47,6-3.47,6a9,9,0,0,1-15.55,0l-3.47-6-3.47-6a9,9,0,0,1,7.78-13.47Z" transform="translate(0.01)"/>
  <path d="M1,0H85.17V12.29H47.11L85.17,47.68V62.9L47.91,28.18,1,65.57V50.08L39.5,19.36l-7.61-7.08H1Z" transform="translate(0.01)"/>
  <path d="M29,167.25a33.8,33.8,0,0,1-12-2,28.46,28.46,0,0,1-9.16-5.47A23.45,23.45,0,0,1,2,151.67a24.46,24.46,0,0,1-2-9.88,27.13,27.13,0,0,1,1.55-9.58,24.19,24.19,0,0,1,4.76-7.67v-.24l-5.23-1.07v-7.5H85.55v10.35H50a24.37,24.37,0,0,1,6,8.39,24.74,24.74,0,0,1,1.9,9.58q0,10.71-7.61,17T29,167.25Zm-.12-10.95q9.28,0,14.81-3.93a12.78,12.78,0,0,0,5.53-11.07,16.79,16.79,0,0,0-2-8.21,27.14,27.14,0,0,0-5.71-7H14.4a20.63,20.63,0,0,0-4.58,5.65,15,15,0,0,0-1.73,7.32,18.22,18.22,0,0,0,1.19,6.48A14.44,14.44,0,0,0,13,151.07a18.83,18.83,0,0,0,6.48,3.81,27.57,27.57,0,0,0,9.43,1.43Z" transform="translate(0.01)"/>
</svg>
